<?xml version="1.0" encoding="UTF-8"?>
<svg width="800px" height="800px" viewBox="0 0 24 24" fill="none" xmlns="http://www.w3.org/2000/svg">
  <!-- Copy icon base -->
  <path d="M8 5H6C4.89543 5 4 5.89543 4 7V19C4 20.1046 4.89543 21 6 21H16C17.1046 21 18 20.1046 18 19V17M8 5C8 6.10457 8.89543 7 10 7H14C15.1046 7 16 6.10457 16 5M8 5C8 3.89543 8.89543 3 10 3H14C15.1046 3 16 3.89543 16 5M16 5H20C21.1046 5 22 5.89543 22 7V15C22 16.1046 21.1046 17 20 17H16C14.8954 17 14 16.1046 14 15V7C14 5.89543 14.8954 5 16 5Z" stroke="#4f46e5" stroke-width="2" stroke-linecap="round" stroke-linejoin="round"/>
  
  <!-- Small globe inside the copy icon -->
  <circle cx="18" cy="11" r="2.5" fill="none" stroke="#4f46e5" stroke-width="1.2"/>
  <path d="M15.8 11H20.2" stroke="#4f46e5" stroke-width="1" stroke-linecap="round"/>
  <path d="M18 8.8V13.2" stroke="#4f46e5" stroke-width="1" stroke-linecap="round"/>
  <path d="M16.5 9.5L19.5 12.5" stroke="#4f46e5" stroke-width="1" stroke-linecap="round"/>
  <path d="M19.5 9.5L16.5 12.5" stroke="#4f46e5" stroke-width="1" stroke-linecap="round"/>
</svg> 